{"title":"The Secret Life of Pets 2016 720p HDRIP x264 AC3 TiTAN","uid":15728313,"size":1992285018,"categoryP":"video","categoryS":"hd___movies","magnet":"?xt=urn:btih:f0ab761d6602f4924944fff40c84e351f119abdb&amp;dn=The+Secret+Life+of+Pets+2016+720p+HDRIP+x264+AC3+TiTAN&amp;tr=udp%3A%2F%2Ftracker.leechers-paradise.org%3A6969&amp;tr=udp%3A%2F%2Fzer0day.ch%3A1337&amp;tr=udp%3A%2F%2Fopen.demonii.com%3A1337&amp;tr=udp%3A%2F%2Ftracker.coppersurfer.tk%3A6969&amp;tr=udp%3A%2F%2Fexodus.desync.com%3A6969","seeders":0,"leechers":6,"uploader":"makintos13","files":2,"time":1472748065,"description":"The Secret Life of Pets 2016 720p HDRIP x264 AC3 TiTAN\r\n\r\n\r\nScreens:\r\n \nhttps://imgmak.com/aAk\r\n \nhttps://imgmak.com/aAm\r\n \nhttps://imgmak.com/aAu\r\n \nhttps://imgmak.com/aA5\r\n \nhttps://imgmak.com/aA1\r\n\r\n\r\n\r\nSource: 1080p Showscen \r\n\r\nGeneral\r\n\r\nFormat                                   : Matroska\r\nFormat version                           : Version 2\r\nFile size                                : 1.86 GiB\r\nDuration                                 : 1h 26mn\r\nOverall bit rate mode                    : Variable\r\nOverall bit rate                         : 3 073 Kbps\r\n\r\nVideo\r\nID                                       : 1\r\nFormat                                   : AVC\r\nFormat/Info                              : Advanced Video Codec\r\nFormat profile                           :   \r\nFormat settings, CABAC                   : Yes\r\nFormat settings, ReFrames                : 3 frames\r\nCodec ID                                 : V_MPEG4/ISO/AVC\r\nDuration                                 : 1h 26mn\r\nBit rate mode                            : Variable\r\nBit rate                                 : 2 788 Kbps\r\nMaximum bit rate                         : 40.0 Mbps\r\nWidth                                    : 1 280 pixels\r\nHeight                                   : 688 pixels\r\nDisplay aspect ratio                     : 1.85:1\r\nFrame rate mode                          : Constant\r\nFrame rate                               : 29.970 fps\r\nColor space                              : YUV\r\nChroma subsampling                       : 4:2:0\r\nBit depth                                : 8 bits\r\nScan type                                : Progressive\r\nBits/(Pixel*Frame)                       : 0.106\r\nStream size                              : 1.68 GiB (91%)\r\nDefault                                  : Yes\r\nForced                                   : No\r\nColor primaries                          : BT.709\r\nTransfer characteristics                 : BT.709\r\nMatrix coefficients                      : BT.709\r\n\r\nAudio\r\nID                                       : 2\r\nFormat                                   : AC-3\r\nFormat/Info                              : Audio Coding 3\r\nMode extension                           : CM (complete main)\r\nFormat settings, Endianness              : Big\r\nCodec ID                                 : A_AC3\r\nDuration                                 : 1h 26mn\r\nBit rate mode                            : Constant\r\nBit rate                                 : 224 Kbps\r\nChannel(s)                               : 2 channels\r\nChannel positions                        : Front: L R\r\nSampling rate                            : 44.1 KHz\r\nBit depth                                : 16 bits\r\nCompression mode                         : Lossy\r\nStream size                              : 138 MiB (7%)\r\nLanguage                                 : English\r\nDefault                                  : Yes\r\nForced                                   : No","torrent":{"xt":"urn:btih:f0ab761d6602f4924944fff40c84e351f119abdb","amp;dn":"The+Secret+Life+of+Pets+2016+720p+HDRIP+x264+AC3+TiTAN","amp;tr":["udp%3A%2F%2Ftracker.leechers-paradise.org%3A6969","udp%3A%2F%2Fzer0day.ch%3A1337","udp%3A%2F%2Fopen.demonii.com%3A1337","udp%3A%2F%2Ftracker.coppersurfer.tk%3A6969","udp%3A%2F%2Fexodus.desync.com%3A6969"],"infoHash":"f0ab761d6602f4924944fff40c84e351f119abdb","infoHashBuffer":{"type":"Buffer","data":[240,171,118,29,102,2,244,146,73,68,255,244,12,132,227,81,241,25,171,219]},"announce":[],"urlList":[]}}